<svg xmlns="http://www.w3.org/2000/svg" xmlns:xlink="http://www.w3.org/1999/xlink" width="500" zoomAndPan="magnify" viewBox="0 0 375 374.999991" height="500" preserveAspectRatio="xMidYMid meet" version="1.0"><defs><clipPath id="578b1d2326"><path d="M 65 23.90625 L 302 23.90625 L 302 342.65625 L 65 342.65625 Z M 65 23.90625 " clip-rule="nonzero"/></clipPath></defs><g clip-path="url(#578b1d2326)"><path fill="#fdcb50" d="M 249.039062 275.957031 C 244.316406 273.976562 238.738281 275.957031 236.417969 280.570312 L 223.683594 305.699219 L 207.78125 256.660156 C 226.515625 252.839844 243.605469 244.460938 257.953125 232.804688 L 275.132812 287.136719 Z M 142.835938 307.085938 L 131.519531 281.304688 C 129.425781 276.550781 123.992188 274.257812 119.152344 276.015625 L 92.496094 285.75 L 112.164062 233.652344 C 126.539062 245.085938 143.601562 253.207031 162.25 256.828125 Z M 184.492188 43.546875 C 238.144531 43.546875 281.78125 87.464844 281.78125 141.457031 C 281.78125 195.449219 238.144531 239.367188 184.492188 239.367188 C 130.839844 239.367188 87.203125 195.449219 87.203125 141.457031 C 87.203125 87.464844 130.839844 43.546875 184.492188 43.546875 Z M 273.660156 217.324219 C 290.949219 196.835938 301.421875 170.378906 301.421875 141.457031 C 301.421875 76.652344 248.957031 23.90625 184.492188 23.90625 C 120.03125 23.90625 67.566406 76.652344 67.566406 141.457031 C 67.566406 171.113281 78.628906 198.167969 96.738281 218.878906 L 66.546875 298.824219 C 65.1875 302.417969 66.066406 306.492188 68.753906 309.207031 C 71.46875 311.953125 75.515625 312.828125 79.109375 311.527344 L 117.226562 297.605469 L 134.433594 336.769531 C 136.019531 340.363281 139.554688 342.65625 143.433594 342.65625 L 143.660156 342.65625 C 147.648438 342.570312 151.15625 340.082031 152.601562 336.375 L 182.511719 258.921875 C 183.164062 258.921875 183.8125 259.007812 184.492188 259.007812 C 185.625 259.007812 186.699219 258.867188 187.832031 258.835938 L 212.335938 334.421875 C 213.554688 338.214844 216.949219 340.875 220.910156 341.183594 C 221.167969 341.183594 221.421875 341.183594 221.675781 341.183594 C 225.355469 341.183594 228.777344 339.148438 230.449219 335.835938 L 249.777344 297.632812 L 287.074219 313.621094 C 290.609375 315.152344 294.714844 314.441406 297.542969 311.867188 C 300.375 309.292969 301.476562 305.300781 300.316406 301.625 L 273.660156 217.324219 " fill-opacity="1" fill-rule="nonzero"/></g><path fill="#fdcb50" d="M 137.574219 126.628906 L 166.097656 122.410156 C 169.296875 121.929688 172.042969 119.921875 173.457031 117.007812 L 186.160156 91.140625 L 198.980469 116.949219 C 200.425781 119.835938 203.167969 121.847656 206.394531 122.296875 L 234.917969 126.375 L 214.347656 146.550781 C 212.027344 148.8125 210.980469 152.070312 211.546875 155.265625 L 216.46875 183.648438 L 190.945312 170.320312 C 188.085938 168.792969 184.664062 168.820312 181.804688 170.320312 L 156.308594 183.789062 L 161.117188 155.378906 C 161.65625 152.179688 160.582031 148.957031 158.261719 146.691406 Z M 133.613281 200.148438 C 133.019531 203.824219 134.546875 207.5625 137.546875 209.738281 C 139.273438 210.984375 141.28125 211.609375 143.320312 211.609375 C 144.902344 211.609375 146.460938 211.238281 147.902344 210.476562 L 186.417969 190.101562 L 225.015625 210.277344 C 228.328125 212.003906 232.34375 211.691406 235.371094 209.484375 C 238.398438 207.304688 239.898438 203.570312 239.25 199.890625 L 231.777344 156.964844 L 262.90625 126.488281 C 265.566406 123.855469 266.5 119.949219 265.339844 116.414062 C 264.179688 112.847656 261.09375 110.273438 257.386719 109.734375 L 214.261719 103.59375 L 194.90625 64.570312 C 193.238281 61.230469 189.8125 59.109375 186.105469 59.109375 L 186.078125 59.109375 C 182.339844 59.136719 178.917969 61.257812 177.277344 64.628906 L 158.089844 103.734375 L 114.992188 110.101562 C 111.3125 110.667969 108.230469 113.273438 107.097656 116.808594 C 105.9375 120.375 106.925781 124.28125 109.617188 126.882812 L 140.886719 157.21875 L 133.613281 200.148438 " fill-opacity="1" fill-rule="nonzero"/></svg>